<?xml version="1.0" encoding="UTF-8" standalone="no"?><!DOCTYPE svg PUBLIC "-//W3C//DTD SVG 1.1//EN" "http://www.w3.org/Graphics/SVG/1.1/DTD/svg11.dtd"><svg width="100%" height="100%" viewBox="0 0 67 67" version="1.1" xmlns="http://www.w3.org/2000/svg" xmlns:xlink="http://www.w3.org/1999/xlink" xml:space="preserve" xmlns:serif="http://www.serif.com/" style="fill-rule:evenodd;clip-rule:evenodd;stroke-linejoin:round;stroke-miterlimit:1.41421;"><rect x="16.667" y="12.5" width="41.667" height="50" style="fill:#fff;fill-rule:nonzero;"/><path d="M16.667,12.5l0,50l41.666,0l0,-50l-41.666,0Zm4.166,4.167l33.334,0l0,41.666l-33.334,0l0,-41.666Z" style="fill:#666;fill-rule:nonzero;"/><rect x="20.833" y="16.667" width="33.333" height="4.167" style="fill:#999;fill-rule:nonzero;"/><path d="M8.333,4.167l4.167,0l0,4.166l-4.167,0l0,-4.166Zm0,8.333l4.167,0l0,4.167l-4.167,0l0,-4.167Zm0,8.333l4.167,0l0,4.167l-4.167,0l0,-4.167Zm0,8.334l4.167,0l0,4.166l-4.167,0l0,-4.166Zm0,8.333l4.167,0l0,4.167l-4.167,0l0,-4.167Zm0,8.333l4.167,0l0,4.167l-4.167,0l0,-4.167Zm8.334,-41.666l4.166,0l0,4.166l-4.166,0l0,-4.166Zm8.333,0l4.167,0l0,4.166l-4.167,0l0,-4.166Zm8.333,0l4.167,0l0,4.166l-4.167,0l0,-4.166Zm8.334,0l4.166,0l0,4.166l-4.166,0l0,-4.166Z" style="fill:#b9b9b9;fill-rule:nonzero;"/><g><path d="M30.103,40.924c0,0.566 -0.458,1.024 -1.023,1.024c-0.566,0 -1.024,-0.458 -1.024,-1.024c0,-0.565 0.458,-1.024 1.024,-1.024c0.565,0 1.023,0.459 1.023,1.024Zm7.165,-7.165c0.566,0 1.024,-0.458 1.024,-1.024c0,-0.565 -0.458,-1.023 -1.024,-1.023c-0.565,0 -1.023,0.458 -1.023,1.023c0,0.566 0.458,1.024 1.023,1.024Zm5.801,0.341c-0.566,0 -1.024,0.458 -1.024,1.024c0,0.565 0.458,1.023 1.024,1.023c0.565,0 1.024,-0.458 1.024,-1.023c0,-0.566 -0.459,-1.024 -1.024,-1.024Zm2.388,5.8c-0.565,0 -1.023,0.459 -1.023,1.024c0,0.566 0.458,1.024 1.023,1.024c0.566,0 1.024,-0.458 1.024,-1.024c0,-0.565 -0.458,-1.024 -1.024,-1.024Z" style="fill:#4c7e3a;fill-rule:nonzero;"/><path d="M39.998,42.289c0,1.508 -1.222,2.729 -2.73,2.729c-1.507,0 -2.729,-1.221 -2.729,-2.729c0,-0.608 0.205,-1.164 0.542,-1.618l-4.143,-5.118c-0.237,-0.293 -0.192,-0.723 0.101,-0.96c0.294,-0.237 0.724,-0.192 0.96,0.102l4.141,5.115c0.345,-0.157 0.725,-0.251 1.129,-0.251c1.507,0 2.729,1.222 2.729,2.73Zm-1.365,0c0,-0.754 -0.611,-1.365 -1.365,-1.365c-0.753,0 -1.364,0.611 -1.364,1.365c0,0.753 0.611,1.365 1.364,1.365c0.754,0 1.365,-0.612 1.365,-1.365Z" style="fill:#1a568f;fill-rule:nonzero;"/><path d="M49.552,40.924c0,2.252 -0.608,4.362 -1.666,6.176c-0.239,0.41 -0.695,0.648 -1.17,0.648l-18.895,0c-0.475,0 -0.931,-0.238 -1.17,-0.648c-1.058,-1.814 -1.666,-3.924 -1.666,-6.176c0,-6.784 5.5,-12.283 12.284,-12.283c6.783,0 12.283,5.499 12.283,12.283Zm-1.365,0c0,-6.02 -4.898,-10.918 -10.918,-10.918c-6.021,0 -10.919,4.898 -10.919,10.918c0,1.93 0.512,3.828 1.48,5.488l18.886,-0.029c0.959,-1.631 1.471,-3.529 1.471,-5.459l0,0Z" style="fill:#b7b8b9;fill-rule:nonzero;"/></g></svg>